<svg xmlns="http://www.w3.org/2000/svg" x="0px" y="0px"
width="120" height="120"
viewBox="0 0 40 40">
<path fill="#98ccfd" d="M32.375,26.5c0,6.627-5.54,12-12.375,12s-12.375-5.373-12.375-12c0-9,11.344-16.5,11.344-25	c2.577,1.249,6.496,5.665,6.496,11.5c0,2.5-0.309,5-0.309,5c3.094-1,3.094-4.5,3.094-4.5S32.375,19,32.375,26.5z"></path><path fill="#fff" d="M20.036,17.036c0.109,0.525,0.179,1.443,0.179,2c0,6.069-6.679,7.091-7.214,11.964	c-0.036,3.464,0.981,7.501,6.744,7.501C24,38.501,27,34.738,27,30.097C27.001,25.515,21.215,17.607,20.036,17.036z"></path><path fill="#4788c7" d="M20,39c-7.099,0-12.875-5.607-12.875-12.5c0-4.722,2.991-9.005,5.883-13.148	c2.808-4.021,5.46-7.82,5.46-11.852c0-0.172,0.088-0.333,0.234-0.424c0.146-0.09,0.329-0.102,0.484-0.026	c2.9,1.406,6.778,6.043,6.778,11.95c0,1.603,0.003,3.187-0.151,4.155c1.911-1.165,1.936-3.627,1.936-3.655	c0-0.215,0.138-0.406,0.342-0.474c0.205-0.068,0.429,0.001,0.558,0.174c0.173,0.23,4.225,5.72,4.225,13.3	C32.875,33.393,27.1,39,20,39z M19.434,2.336c-0.334,4.039-3.011,7.873-5.605,11.589C11.024,17.94,8.125,22.093,8.125,26.5	C8.125,32.841,13.452,38,20,38s11.875-5.159,11.875-11.5c0-5.354-2.183-9.709-3.333-11.634c-0.322,1.227-1.143,2.935-3.231,3.61	c-0.168,0.056-0.355,0.016-0.487-0.103c-0.133-0.119-0.192-0.299-0.156-0.474c0.005-0.024,0.298-2.482,0.298-4.899	C24.966,8.045,21.963,3.957,19.434,2.336z"></path>
</svg>